<svg width="18" height="18" viewBox="0 0 18 18" fill="none" xmlns="http://www.w3.org/2000/svg">
  <path d="M17.5777 7.85892L11.2042 0.96437C10.6364 0.349582 9.83776 0 9.00112 0C8.16449 0 7.36586 0.349582 6.798 0.96437L0.43575 7.85667C0.156535 8.13796 -0.000116629 8.51837 6.51499e-08 8.91483V15.7486C6.51499e-08 16.992 1.00736 18 2.25 18H5.25V13.4972C5.25512 12.124 6.01171 10.8639 7.221 10.2146C7.2585 10.1936 7.296 10.1726 7.335 10.1524C7.47503 10.0826 7.61932 10.0216 7.767 9.96999C7.86825 9.93322 7.971 9.9017 8.07675 9.87393C8.1825 9.84616 8.31 9.8214 8.43 9.79888C8.496 9.78838 8.5575 9.76586 8.625 9.75911C8.7405 9.74785 8.85 9.7456 8.96625 9.74485C8.97825 9.74485 8.98875 9.7411 9 9.7411H9.0135C9.24566 9.74289 9.47716 9.76626 9.705 9.81089C9.7305 9.81614 9.756 9.81839 9.78 9.82365C9.99377 9.87036 10.2031 9.93565 10.4055 10.0188C10.434 10.03 10.4625 10.0405 10.491 10.0533C10.6847 10.1374 10.8708 10.2378 11.0475 10.3535L11.1308 10.409C11.3022 10.5283 11.4635 10.6616 11.613 10.8075C11.637 10.8308 11.6595 10.854 11.6827 10.8781C11.8292 11.0285 11.9631 11.1907 12.0832 11.3629L12.1342 11.4379C12.2523 11.6173 12.3549 11.8063 12.441 12.003C12.4508 12.027 12.459 12.051 12.4687 12.0781C12.5544 12.2855 12.6212 12.5002 12.6682 12.7197C12.6682 12.7362 12.6735 12.7535 12.6765 12.77C12.7247 13.0094 12.7493 13.253 12.75 13.4972V18H15.75C16.9926 18 18 16.992 18 15.7486V8.90357C18.0002 8.5137 17.8487 8.13905 17.5777 7.85892Z" fill="#374F60"></path>
</svg>